<?xml version="1.0" standalone="no"?>
<!DOCTYPE svg PUBLIC "-//W3C//DTD SVG 20010904//EN"
 "http://www.w3.org/TR/2001/REC-SVG-20010904/DTD/svg10.dtd">
<svg version="1.0" xmlns="http://www.w3.org/2000/svg"
 width="1600.000000pt" height="1200.000000pt" viewBox="0 0 1600.000000 1200.000000"
 preserveAspectRatio="xMidYMid meet">

<g transform="translate(0.000000,1200.000000) scale(0.100000,-0.100000)"
fill="#000000" stroke="none">
<path d="M0 6431 l0 -5569 53 20 c81 31 300 84 427 104 162 26 548 26 710 0
502 -79 941 -296 1318 -651 l82 -77 88 79 c463 421 1001 633 1602 633 710 0
1391 -326 1825 -874 38 -47 72 -86 77 -86 5 0 71 37 146 82 270 161 639 341
957 468 1197 477 2508 616 3790 399 824 -139 1667 -449 2392 -881 l132 -78
1200 0 1201 0 0 6000 0 6000 -8000 0 -8000 0 0 -5569z m4496 1208 c536 -74
980 -456 1127 -969 14 -47 28 -100 32 -119 l7 -34 -68 56 c-81 68 -172 117
-274 148 -62 20 -97 24 -205 24 -143 0 -221 -18 -339 -77 l-59 -30 -76 35
c-127 59 -181 71 -321 71 -142 0 -211 -14 -329 -71 l-74 -35 -61 30 c-118 59
-198 77 -336 77 -103 0 -138 -4 -200 -24 -107 -33 -218 -93 -289 -157 l-61
-55 7 33 c12 64 54 203 83 273 123 293 360 547 650 693 102 51 267 105 370
122 41 6 82 13 90 15 40 7 257 4 326 -6z m2700 -900 c94 -13 213 -54 290 -100
61 -37 167 -127 162 -139 -2 -4 -51 -51 -111 -104 l-107 -97 -52 46 c-117 105
-265 140 -407 96 -84 -26 -137 -60 -199 -125 -63 -66 -109 -160 -124 -251 -33
-198 81 -409 269 -498 63 -30 75 -32 173 -32 96 1 110 3 172 32 37 17 90 52
117 78 l50 47 108 -98 c59 -54 109 -101 111 -105 1 -3 -22 -28 -51 -55 -156
-141 -389 -213 -599 -185 -297 39 -546 242 -645 526 -25 73 -28 92 -27 220 0
125 3 149 27 220 39 116 91 198 187 296 96 97 186 155 303 194 129 43 225 52
353 34z m4984 -729 l0 -740 -155 0 -155 0 0 74 0 75 -50 -49 c-183 -178 -488
-168 -666 23 -109 116 -154 240 -154 422 0 182 45 306 154 422 178 191 483
202 666 23 l50 -49 0 270 0 269 155 0 155 0 0 -740z m-4032 -17 l2 -723 -155
0 -155 0 0 725 0 726 153 -3 152 -3 3 -722z m-4513 532 c86 -22 176 -68 234
-121 l51 -46 50 46 c68 64 175 113 276 128 146 21 308 -28 420 -126 l48 -43
57 47 c300 250 743 115 853 -259 23 -77 21 -213 -4 -292 -55 -179 -199 -317
-376 -363 -54 -14 -170 -16 -926 -16 -940 0 -917 -1 -1037 57 -78 38 -181 139
-225 222 -112 214 -77 452 93 622 133 133 317 187 486 144z m5440 -150 c39 -8
104 -31 145 -51 102 -50 224 -171 269 -267 108 -228 61 -470 -126 -649 -185
-176 -449 -214 -683 -100 -100 49 -221 168 -268 264 -35 71 -62 177 -62 243 0
66 28 176 61 243 36 73 137 186 208 231 138 89 299 119 456 86z m965 -329 c0
-172 5 -337 10 -367 21 -109 92 -169 201 -169 112 0 197 63 219 162 6 28 10
184 10 368 l0 320 155 0 155 0 0 -545 0 -545 -155 0 -155 0 0 65 0 65 -36 -40
c-76 -84 -228 -132 -355 -113 -180 28 -309 157 -339 339 -6 33 -10 220 -10
417 l0 357 150 0 150 0 0 -314z m2735 -53 c75 -203 140 -371 144 -376 4 -4 67
162 140 368 l134 375 159 0 c124 0 159 -3 155 -12 -3 -7 -107 -274 -232 -593
-125 -319 -240 -606 -257 -638 -43 -80 -125 -162 -195 -195 -80 -37 -190 -42
-304 -13 -45 11 -92 27 -105 36 l-22 14 29 93 c16 51 32 99 34 106 4 9 15 7
46 -9 23 -11 65 -23 93 -25 71 -7 113 16 148 82 l27 50 -224 545 c-124 299
-225 547 -225 552 0 4 72 7 159 7 l159 0 137 -367z m-8257 -796 c-4 -123 -7
-139 -35 -198 -38 -81 -100 -144 -183 -183 -57 -27 -76 -31 -150 -31 -72 1
-95 5 -148 29 -113 52 -196 165 -216 294 l-6 42 109 0 109 0 6 -34 c25 -130
206 -159 276 -44 17 28 20 51 20 146 l0 112 111 0 112 0 -5 -133z"/>
<path d="M11465 6096 c-62 -29 -107 -76 -137 -141 -18 -40 -23 -67 -23 -140 0
-73 5 -100 23 -140 48 -105 139 -165 251 -165 94 0 138 17 197 75 62 62 88
129 88 230 0 130 -61 238 -159 284 -65 30 -172 29 -240 -3z"/>
<path d="M8855 6108 c-78 -28 -150 -101 -186 -188 -24 -58 -18 -166 12 -230
37 -78 71 -114 141 -149 148 -74 321 -14 395 137 24 48 28 69 28 137 0 93 -21
148 -80 213 -56 63 -124 92 -209 91 -39 0 -84 -5 -101 -11z"/>
</g>
</svg>
